<svg width="60" height="67" viewBox="0 0 64 71" fill="none" xmlns="http://www.w3.org/2000/svg">
<path d="M13.6873 25.9477C14.4585 19.1998 14.8442 15.8258 17.1201 13.7952C19.396 11.7646 22.7919 11.7646 29.5838 11.7646H34.3039C41.0957 11.7646 44.4917 11.7646 46.7676 13.7952C49.0435 15.8258 49.4291 19.1998 50.2004 25.9477L51.5009 37.326C51.7028 39.0927 51.8038 39.9761 52.0924 40.8094C52.3809 41.6427 52.8479 42.3993 53.7819 43.9126L60.0049 53.9951C60.8381 55.345 61.2547 56.02 60.9686 56.5328C60.6825 57.0455 59.8893 57.0455 58.303 57.0455H5.58467C3.99833 57.0455 3.20516 57.0455 2.91906 56.5328C2.63297 56.02 3.04956 55.345 3.88274 53.9951L10.1057 43.9126C11.0397 42.3993 11.5067 41.6427 11.7953 40.8094C12.0839 39.9761 12.1848 39.0927 12.3868 37.326L13.6873 25.9477Z" stroke="#262626" stroke-width="5"/>
<path d="M22.4259 58.527C22.998 61.2447 24.2588 63.6461 26.0126 65.3589C27.7664 67.0716 29.9152 68 32.1258 68C34.3364 68 36.4853 67.0716 38.2391 65.3589C39.9929 63.6461 41.2536 61.2447 41.8258 58.527" stroke="#262626" stroke-width="5" stroke-linecap="round"/>
<path d="M32.6738 3L32.6738 7.38202" stroke="#262626" stroke-width="5" stroke-linecap="round"/>
</svg>
