<svg width="23" height="27" viewBox="0 0 23 27" fill="none" xmlns="http://www.w3.org/2000/svg">
<path d="M5.04067 10.9494C5.42152 7.61726 8.24167 5.10107 11.5955 5.10107V5.10107C14.9493 5.10107 17.7695 7.61725 18.1503 10.9494L18.4236 13.3402C18.4562 13.6258 18.4726 13.7686 18.4937 13.9091C18.6402 14.8825 18.965 15.8206 19.452 16.6761C19.5223 16.7996 19.5978 16.9219 19.7487 17.1665L20.4217 18.2569C21.1502 19.4372 21.5144 20.0273 21.327 20.4954C21.2952 20.5747 21.2534 20.6496 21.2026 20.7182C20.9028 21.1235 20.2093 21.1235 18.8223 21.1235H4.3687C2.98169 21.1235 2.28819 21.1235 1.98838 20.7182C1.93758 20.6496 1.89579 20.5747 1.86403 20.4954C1.67658 20.0273 2.04082 19.4372 2.76931 18.2569L3.44231 17.1665C3.59326 16.9219 3.66873 16.7996 3.73905 16.6761C4.22598 15.8206 4.55084 14.8825 4.6973 13.9091C4.71845 13.7686 4.73476 13.6258 4.7674 13.3402L5.04067 10.9494Z" stroke="#262626" stroke-width="2.5"/>
<path d="M8.22918 21.648C8.43163 22.6097 8.87774 23.4594 9.49832 24.0654C10.1189 24.6715 10.8793 25 11.6615 25C12.4437 25 13.2041 24.6715 13.8246 24.0654C14.4452 23.4594 14.8913 22.6097 15.0938 21.648" stroke="#262626" stroke-width="2.5" stroke-linecap="round"/>
<path d="M11.8535 2L11.8535 3.55056" stroke="#262626" stroke-width="2.5" stroke-linecap="round"/>
</svg>
