<svg width="46" height="46" viewBox="0 0 58 58" fill="none" xmlns="http://www.w3.org/2000/svg">
<path d="M28.662 20.6626L30.6465 20.4146L28.662 20.6626ZM37.1454 6.12002L35.1842 6.5122L35.1842 6.5123L37.1454 6.12002ZM53.3628 29.5376C54.3951 34.6996 51.8714 40.7239 47.0065 45.6103C42.1754 50.4627 35.3907 53.8074 28.662 53.8074V57.8074C36.6583 57.8074 44.4165 53.8811 49.8411 48.4325C55.2319 43.018 58.6767 35.7113 57.2852 28.7532L53.3628 29.5376ZM28.662 53.8074C15.0415 53.8074 4 42.7659 4 29.1454H0C0 44.975 12.8324 57.8074 28.662 57.8074V53.8074ZM4 29.1454C4 15.525 15.0415 4.4834 28.662 4.4834V0.483398C12.8324 0.483398 0 13.3158 0 29.1454H4ZM26.6774 20.9107C26.8865 22.5834 27.6093 23.9388 28.8239 24.8889C29.9723 25.7873 31.3832 26.1835 32.7445 26.3577C35.3975 26.6972 38.7682 26.2746 41.7328 25.9853C44.8914 25.677 47.6992 25.5002 49.8381 26.0148C50.8644 26.2617 51.619 26.6439 52.1604 27.1542C52.6844 27.6481 53.1304 28.3754 53.3628 29.5376L57.2852 28.7532C56.9116 26.8855 56.1078 25.3781 54.9039 24.2434C53.7175 23.1251 52.2659 22.4848 50.7738 22.1258C47.8756 21.4285 44.3967 21.7063 41.3442 22.0042C38.0978 22.3211 35.3332 22.6563 33.2522 22.3901C32.2465 22.2614 31.6407 22.0139 31.2885 21.7384C31.0023 21.5145 30.7404 21.1657 30.6465 20.4146L26.6774 20.9107ZM28.662 4.4834C30.5649 4.4834 32.2502 4.60214 33.4856 5.00633C34.6541 5.38862 35.0585 5.88375 35.1842 6.5122L39.1065 5.72783C38.5943 3.16634 36.6811 1.84317 34.7295 1.20463C32.8447 0.587996 30.6073 0.483398 28.662 0.483398V4.4834ZM35.1842 6.5123C35.3624 7.40295 35.1561 8.35667 34.5263 9.47715C33.8835 10.6207 32.8927 11.7711 31.7466 12.9738C30.6783 14.0948 29.3599 15.3704 28.4311 16.496C27.9498 17.0793 27.482 17.7255 27.1497 18.4142C26.8165 19.1044 26.5589 19.9628 26.6774 20.9107L30.6465 20.4146C30.6559 20.4893 30.6194 20.4277 30.7521 20.1528C30.8855 19.8763 31.1282 19.5123 31.5164 19.0418C32.3267 18.0599 33.3836 17.0541 34.6423 15.7334C35.823 14.4943 37.1107 13.0426 38.0132 11.4371C38.9286 9.8086 39.5343 7.86641 39.1065 5.72773L35.1842 6.5123Z" fill="#262626"/>
<circle cx="20.8899" cy="13.4972" r="5.5" transform="rotate(-11.6506 20.8899 13.4972)" fill="#BDB5FF"/>
<circle cx="30.2638" cy="45.3776" r="6" transform="rotate(-11.6506 30.2638 45.3776)" fill="#BBDED6"/>
<ellipse cx="43.0612" cy="36.4908" rx="5.5" ry="6" transform="rotate(-11.6506 43.0612 36.4908)" fill="#F09690"/>
<circle cx="16.8947" cy="39.966" r="6" transform="rotate(-11.6506 16.8947 39.966)" fill="#FFE17D"/>
<path d="M18.9644 25.2446C19.6336 28.49 17.5451 31.6634 14.2997 32.3326C11.0543 33.0018 7.88083 30.9133 7.21166 27.6679C6.54248 24.4225 8.63095 21.249 11.8764 20.5798C15.1218 19.9107 18.2952 21.9991 18.9644 25.2446Z" fill="#C0DEFF"/>
</svg>
