<svg width="27" height="27" viewBox="0 0 27 27" fill="none" xmlns="http://www.w3.org/2000/svg">
<path d="M22.5 13.5V19.625C22.5 21.5106 22.5 22.4534 21.9142 23.0392C21.3284 23.625 20.3856 23.625 18.5 23.625H7.3125C5.7592 23.625 4.5 22.3658 4.5 20.8125V20.8125C4.5 19.2592 5.7592 18 7.3125 18H18.5C20.3856 18 21.3284 18 21.9142 17.4142C22.5 16.8284 22.5 15.8856 22.5 14V7.375C22.5 5.48938 22.5 4.54657 21.9142 3.96079C21.3284 3.375 20.3856 3.375 18.5 3.375H8.5C6.61438 3.375 5.67157 3.375 5.08579 3.96079C4.5 4.54657 4.5 5.48938 4.5 7.375V20.8125" stroke="#222222" stroke-width="2.5"/>
<path d="M10.125 9L16.875 9" stroke="#222222" stroke-width="2.5" stroke-linecap="round"/>
</svg>
