<svg width="30" height="30" viewBox="0 0 30 30" fill="none" xmlns="http://www.w3.org/2000/svg">
<path fill-rule="evenodd" clip-rule="evenodd" d="M26.25 3.75V22.5L21.25 21.1663V21.25C21.25 23.2471 19.6888 24.8796 17.7203 24.9936L17.5 25H12.5C10.5029 25 8.87042 23.4389 8.75637 21.4703L8.75 21.25V17.8337L7.5 17.5H3.75V10H7.5L26.25 3.75ZM11.25 18.5V21.25C11.25 21.891 11.7326 22.4194 12.3542 22.4916L12.5 22.5H17.5C18.141 22.5 18.6694 22.0175 18.7416 21.3958L18.75 21.25V20.5L11.25 18.5ZM23.75 7.2175L7.90569 12.5H6.25V15H7.82761L23.75 19.245V7.2175Z" fill="#262626"/>
</svg>
