<svg width="45" height="45" viewBox="0 0 50 50" fill="none" xmlns="http://www.w3.org/2000/svg">
<path fill-rule="evenodd" clip-rule="evenodd" d="M39.5827 8.3335C40.7333 8.3335 41.666 9.26624 41.666 10.4168V39.5835C41.666 40.7341 40.7333 41.6668 39.5827 41.6668C38.4321 41.6668 37.4993 40.7341 37.4993 39.5835V29.6522L16.6381 41.1951C14.5662 42.2451 12 41.4835 10.9065 39.4939C10.5844 38.9079 10.416 38.2553 10.416 37.5926V12.4069C10.416 10.1572 12.3153 8.3335 14.6581 8.3335C15.3482 8.3335 16.0278 8.49515 16.6381 8.80444L37.4993 20.3439V10.4168C37.4993 9.26624 38.4321 8.3335 39.5827 8.3335Z" fill="#262626"/>
</svg>
