<svg width="45" height="45" viewBox="0 0 50 50" fill="none" xmlns="http://www.w3.org/2000/svg">
<path fill-rule="evenodd" clip-rule="evenodd" d="M12.4993 8.3335C11.3488 8.3335 10.416 9.26624 10.416 10.4168V39.5835C10.416 40.7341 11.3488 41.6668 12.4993 41.6668C13.6499 41.6668 14.5827 40.7341 14.5827 39.5835V29.6522L35.4439 41.1951C37.5159 42.2451 40.082 41.4835 41.1756 39.4939C41.4977 38.9079 41.666 38.2553 41.666 37.5926V12.4069C41.666 10.1572 39.7668 8.3335 37.4239 8.3335C36.7338 8.3335 36.0542 8.49515 35.4439 8.80444L14.5827 20.3439V10.4168C14.5827 9.26624 13.6499 8.3335 12.4993 8.3335Z" fill="#262626"/>
</svg>
