<svg width="80" height="80" viewBox="0 0 80 80" fill="none" xmlns="http://www.w3.org/2000/svg">
<path d="M19.7934 51.6665C17.1498 47.0877 16.1397 41.7469 16.9284 36.5189C17.7172 31.291 20.258 26.4859 24.1348 22.8908C28.0115 19.2957 32.9943 17.1239 38.2668 16.731C43.5393 16.3381 48.7889 17.7476 53.1557 20.7284C57.5224 23.7092 60.7474 28.0846 62.3022 33.138C63.857 38.1913 63.6496 43.6229 61.7138 48.5429C59.778 53.4629 56.2287 57.5796 51.6473 60.2186C47.0659 62.8577 41.7241 63.8625 36.4969 63.0686" stroke="#262626" stroke-width="4" stroke-linecap="round"/>
<rect x="31" y="62.5464" width="19.257" height="4" rx="2" transform="rotate(-44.7041 31 62.5464)" fill="#262626"/>
<rect x="33.834" y="60" width="19.257" height="4" rx="2" transform="rotate(45.1028 33.834 60)" fill="#262626"/>
</svg>
